<?xml version="1.0" encoding="UTF-8"?><svg id="Layer_1" xmlns="http://www.w3.org/2000/svg" viewBox="0 0 145.5 72"><defs><style>.cls-1,.cls-2{fill:#fff;}.cls-3{fill:#ed366e;opacity:.3;}.cls-2{isolation:isolate;opacity:.22;stroke:#edeef2;stroke-miterlimit:10;stroke-width:.5px;}</style></defs><circle class="cls-1" cx="14.72" cy="27.08" r="8.54"/><circle class="cls-1" cx="31.8" cy="27.08" r="8.54"/><circle class="cls-1" cx="117.7" cy="44.16" r="8.54"/><circle class="cls-1" cx="23.26" cy="35.62" r="8.54"/><circle class="cls-1" cx="31.8" cy="44.16" r="8.54"/><circle class="cls-1" cx="14.72" cy="44.16" r="8.54"/><path class="cls-1" d="M74.62,35.58v17.16h-17.16c0-9.48,7.68-17.16,17.16-17.16Z"/><path class="cls-1" d="M74.62,35.58v17.16h17.16c0-9.48-7.68-17.16-17.16-17.16Z"/><path class="cls-1" d="M74.62,18.5h-17.16v17.16c9.48,0,17.16-7.68,17.16-17.16Z"/><path class="cls-1" d="M74.84,18.5h17.16v17.16c-9.48,0-17.16-7.68-17.16-17.16Z"/><path class="cls-1" d="M109.03,52.74h-17.16v-17.16c9.48,0,17.16,7.68,17.16,17.16Z"/><path class="cls-1" d="M109.03,35.66h-17.16v-17.16c9.48,0,17.16,7.68,17.16,17.16Z"/><path class="cls-1" d="M109.12,35.66h17.16v-17.16c-9.48,0-17.16,7.68-17.16,17.16Z"/><path class="cls-1" d="M40.32,18.56v34.2h17.23V18.56h-17.23ZM48.94,35.78c-4.72,0-8.54-3.82-8.54-8.54s3.82-8.54,8.54-8.54,8.54,3.82,8.54,8.54-3.82,8.54-8.54,8.54Z"/><rect class="cls-2" x="1.85" y="18.03" width="128.41" height=".48"/><rect class="cls-2" x="1.85" y="35.25" width="128.41" height=".48"/><rect class="cls-2" x="1.85" y="52.46" width="128.41" height=".48"/><rect class="cls-2" x="79.41" y="35.54" width="59.5" height=".48" transform="translate(73.38 144.93) rotate(-90)"/><rect class="cls-2" x="62.25" y="35.35" width="59.5" height=".48" transform="translate(56.42 127.58) rotate(-90)"/><rect class="cls-2" x="44.87" y="35.44" width="59.5" height=".48" transform="translate(38.94 110.3) rotate(-90)"/><rect class="cls-2" x="27.71" y="35.25" width="59.5" height=".48" transform="translate(21.97 92.95) rotate(-90)"/><rect class="cls-2" x="10.63" y="35.64" width="59.5" height=".48" transform="translate(4.51 76.25) rotate(-90)"/><rect class="cls-2" x="-6.53" y="35.44" width="59.5" height=".48" transform="translate(-12.46 58.9) rotate(-90)"/><circle class="cls-3" cx="117.7" cy="44.16" r="8.54"/><circle class="cls-3" cx="31.8" cy="44.16" r="8.54"/><circle class="cls-3" cx="48.88" cy="27.24" r="8.54"/><circle class="cls-3" cx="14.72" cy="44.16" r="8.54"/><circle class="cls-3" cx="14.72" cy="27.08" r="8.54"/><circle class="cls-3" cx="31.8" cy="27.08" r="8.54"/><circle class="cls-3" cx="126.11" cy="35.49" r="16.95"/><circle class="cls-3" cx="91.89" cy="35.49" r="16.95"/><circle class="cls-3" cx="91.76" cy="18.54" r="16.95"/><circle class="cls-3" cx="92.24" cy="52.7" r="16.95"/><circle class="cls-3" cx="74.62" cy="52.46" r="16.95"/><circle class="cls-3" cx="57.48" cy="18.56" r="16.95"/><rect class="cls-3" x="40.53" y="18.56" width="16.69" height="33.9"/><rect class="cls-3" x="14.88" y="26.9" width="16.69" height="16.69"/></svg>