<?xml version="1.0" encoding="UTF-8"?><svg id="Layer_1" xmlns="http://www.w3.org/2000/svg" viewBox="0 0 111.46 72"><defs><style>.cls-1{fill:#8952a1;}.cls-2{opacity:.32;}.cls-2,.cls-3,.cls-4{isolation:isolate;}.cls-5{fill:#ee366d;}.cls-3{opacity:.48;}.cls-4{opacity:.22;}.cls-6{fill:#231f20;}.cls-7{fill:#edeef2;}</style></defs><path class="cls-6" d="M67.64,28.73c-1.05,3.46-3.07,6.72-4,10.28-1.08,4.15-.2,8.65.1,12.85h-9.97c.04-3.02.07-6.05.42-9.06s1.71-6.12,1.19-9.1c-.08-.45-.23-.94-.62-1.18-.35-.22-.81-.18-1.17,0s-.64.51-.87.85c-1.61,2.36-1.34,5.42-1.33,8.13,0,.85.11,10.36.11,10.36h-22.9c-1.51-6.72-.07-13.78,2.14-20.18.52-1.5.98-4.95-1.43-5.08-2.24-.12-3.13,3.05-3.39,4.81-.32,2.21-.31,4.36-.36,6.59-.1,4.29-.04,12.82-.03,13.87h-10.14v-21.5c0-1.93-.06-3.89.33-5.77,1.2-5.73,5.45-10.53,10.92-12.58,4.97-1.86,12.96-1.76,16.51,2.91,3.51,4.6.07,10.72-2.02,15.13-1.85,3.92-3.26,8.4-.98,12.46.23.41.5.81.9,1.05s.96.28,1.31-.03c1.02-.89.75-4.24.84-5.5.15-2.23.23-4.47.65-6.67.76-3.97,2.76-7.31,6.43-9.14,4.28-2.14,9.37-2.46,13.71-.26,1.88.95,3.69,2.56,3.88,4.66.06.69-.05,1.39-.26,2.09h.03Z"/><path class="cls-7" d="M67.64,28.73c-1.05,3.46-3.07,6.72-4,10.28-1.08,4.15-.2,8.65.1,12.85h-9.97c.04-3.02.07-6.05.42-9.06s1.71-6.12,1.19-9.1c-.08-.45-.23-.94-.62-1.18-.35-.22-.81-.18-1.17,0s-.64.51-.87.85c-1.61,2.36-1.34,5.42-1.33,8.13,0,.85.11,10.36.11,10.36h-22.9c-1.51-6.72-.07-13.78,2.14-20.18.52-1.5.98-4.95-1.43-5.08-2.24-.12-3.13,3.05-3.39,4.81-.32,2.21-.31,4.36-.36,6.59-.1,4.29-.04,12.82-.03,13.87h-10.14v-21.5c0-1.93-.06-3.89.33-5.77,1.2-5.73,5.45-10.53,10.92-12.58,4.97-1.86,12.96-1.76,16.51,2.91,3.51,4.6.07,10.72-2.02,15.13-1.85,3.92-3.26,8.4-.98,12.46.23.41.5.81.9,1.05s.96.28,1.31-.03c1.02-.89.75-4.24.84-5.5.15-2.23.23-4.47.65-6.67.76-3.97,2.76-7.31,6.43-9.14,4.28-2.14,9.37-2.46,13.71-.26,1.88.95,3.69,2.56,3.88,4.66.06.69-.05,1.39-.26,2.09h.03Z"/><g class="cls-2"><circle class="cls-5" cx="32.87" cy="28.52" r="17.47"/></g><g class="cls-2"><circle class="cls-5" cx="35.12" cy="20.27" r="9.69"/></g><g class="cls-2"><circle class="cls-5" cx="29.19" cy="28.34" r="1.62"/></g><g class="cls-2"><circle class="cls-5" cx="28.32" cy="31.24" r="2.32"/></g><g class="cls-2"><circle class="cls-5" cx="27.69" cy="34.51" r="2.08"/></g><g class="cls-2"><circle class="cls-5" cx="55.91" cy="31.1" r="11.57"/></g><g class="cls-2"><circle class="cls-5" cx="57.4" cy="25.63" r="6.42"/></g><g class="cls-2"><circle class="cls-5" cx="49.25" cy="33.56" r="9.69"/></g><g class="cls-2"><circle class="cls-5" cx="86.45" cy="44.23" r="25.01"/></g><g class="cls-2"><circle class="cls-5" cx="53.45" cy="33.56" r="9.69"/></g><g class="cls-2"><circle class="cls-5" cx="54.03" cy="31.44" r="9.69"/></g><g class="cls-2"><circle class="cls-5" cx="52.62" cy="46.35" r="24.6"/></g><g class="cls-2"><circle class="cls-5" cx="41.95" cy="37.58" r="1.81"/></g><g class="cls-3"><rect class="cls-1" x="15.4" y="29.66" width="10.21" height="22.08"/></g><g class="cls-3"><rect class="cls-1" x="28.02" y="29.66" width="10.21" height="22.08"/></g><g class="cls-3"><rect class="cls-1" x="38.22" y="29.66" width="13.4" height="22.08"/></g><g class="cls-2"><circle class="cls-5" cx="78.02" cy="46.35" r="24.6"/></g><g class="cls-3"><rect class="cls-1" x="53.42" y="29.66" width="10.21" height="22.08"/></g><g class="cls-2"><circle class="cls-5" cx="45.83" cy="39.55" r="16.76"/></g><g class="cls-2"><circle class="cls-5" cx="25.61" cy="29.96" r="5.64"/></g><g class="cls-2"><circle class="cls-5" cx="31.24" cy="31.87" r="5.64"/></g><g class="cls-2"><circle class="cls-5" cx="42.42" cy="38.46" r="1.33"/></g><g class="cls-2"><circle class="cls-5" cx="41.64" cy="34.99" r="2.07"/></g><g class="cls-2"><circle class="cls-5" cx="42.22" cy="30.42" r="2.02"/></g><g class="cls-2"><circle class="cls-5" cx="43.94" cy="27.04" r="1.48"/></g><g class="cls-2"><circle class="cls-5" cx="45.83" cy="23.68" r="1.48"/></g><g class="cls-4"><rect class="cls-7" x="67.55" y=".52" width=".75" height="64.9"/></g><g class="cls-4"><rect class="cls-7" x="55.16" y=".52" width=".75" height="64.9"/></g><g class="cls-4"><rect class="cls-7" x="51.23" y=".52" width=".75" height="64.9"/></g><g class="cls-4"><rect class="cls-7" x="42.78" y=".52" width=".75" height="64.9"/></g><g class="cls-4"><rect class="cls-7" x="38.55" y=".52" width=".75" height="64.9"/></g><g class="cls-4"><rect class="cls-7" x="31" y=".52" width=".75" height="64.9"/></g><g class="cls-4"><rect class="cls-7" x="25.26" y=".52" width=".75" height="64.9"/></g><g class="cls-4"><rect class="cls-7" x="1.4" y="51.49" width="96.66" height=".75"/></g><g class="cls-4"><rect class="cls-7" x=".93" y="10.51" width="96.66" height=".75"/></g><g class="cls-4"><rect class="cls-7" x=".96" y="19.89" width="96.66" height=".75"/></g><g class="cls-4"><rect class="cls-7" x="1.16" y="26.16" width="96.66" height=".75"/></g><g class="cls-4"><rect class="cls-7" x="1.16" y="32.42" width="96.66" height=".75"/></g><g class="cls-4"><rect class="cls-7" x="1.47" y="43.29" width="96.66" height=".75"/></g></svg>