<?xml version="1.0" encoding="UTF-8"?><svg id="Layer_2" xmlns="http://www.w3.org/2000/svg" viewBox="0 0 320 160"><defs><style>.cls-1{fill:#edeef2;stroke-width:0px;}</style></defs><path class="cls-1" d="m63.87,31.08c3.59,0,6.67.63,9.23,1.89,2.56,1.26,4.66,2.92,6.31,4.99,1.64,2.06,2.85,4.43,3.61,7.11.76,2.68,1.15,5.43,1.15,8.25v34.4h-13.76v-30.5c0-1.6-.12-3.29-.34-5.05-.23-1.76-.73-3.34-1.49-4.76-.77-1.41-1.82-2.58-3.15-3.5-1.34-.92-3.11-1.38-5.33-1.38s-3.97.46-5.5,1.38c-1.53.92-2.79,2.1-3.78,3.55-.99,1.45-1.72,3.08-2.18,4.87-.46,1.8-.69,3.57-.69,5.33v30.04h-13.76v-33.25c0-3.44-.82-6.29-2.47-8.54-1.64-2.25-4.22-3.38-7.74-3.38-2.06,0-3.86.44-5.39,1.32-1.53.88-2.77,2.01-3.73,3.38-.96,1.38-1.68,2.96-2.18,4.76-.5,1.8-.75,3.61-.75,5.45v30.27H-1.83v-55.03h13.07v8.83h.23c.61-1.38,1.43-2.67,2.47-3.9,1.03-1.22,2.25-2.33,3.67-3.32,1.41-.99,3.04-1.78,4.87-2.35,1.83-.57,3.86-.86,6.08-.86,4.28,0,7.83.96,10.66,2.87,2.83,1.91,5,4.43,6.54,7.57,1.83-3.36,4.28-5.94,7.34-7.74,3.06-1.8,6.65-2.69,10.78-2.69Z"/><path class="cls-1" d="m150.43,87.72h-13.07v-8.83h-.23c-1.22,2.75-3.34,5.18-6.36,7.28-3.02,2.1-6.59,3.15-10.72,3.15-3.59,0-6.67-.63-9.23-1.89-2.56-1.26-4.66-2.92-6.31-4.99-1.65-2.06-2.85-4.43-3.61-7.11-.77-2.68-1.15-5.43-1.15-8.25v-34.4h13.76v30.5c0,1.6.11,3.29.34,5.04.23,1.76.73,3.35,1.49,4.76.76,1.42,1.81,2.58,3.15,3.5s3.11,1.38,5.33,1.38,4.03-.44,5.68-1.32c1.64-.88,2.98-2.01,4.01-3.38,1.03-1.38,1.81-2.96,2.35-4.76.53-1.8.8-3.61.8-5.45v-30.27h13.76v55.03Z"/><path class="cls-1" d="m180.93,32.69v58.36c0,3.29-.27,6.4-.8,9.34-.54,2.94-1.55,5.5-3.04,7.68-1.49,2.18-3.52,3.92-6.08,5.22-2.56,1.3-5.9,1.95-10.03,1.95-1.15,0-2.29-.08-3.44-.23-1.15-.15-2.06-.31-2.75-.46l1.15-11.7c.61.15,1.26.27,1.95.34.69.07,1.3.11,1.83.11,1.6,0,2.9-.31,3.9-.92.99-.61,1.76-1.45,2.29-2.52.53-1.07.88-2.31,1.03-3.73.15-1.42.23-2.92.23-4.53v-58.93h13.76Zm-15.71-18.69c0-2.22.82-4.15,2.47-5.79,1.64-1.64,3.73-2.47,6.25-2.47s4.64.78,6.36,2.35c1.72,1.57,2.58,3.54,2.58,5.9s-.86,4.34-2.58,5.9c-1.72,1.57-3.84,2.35-6.36,2.35s-4.61-.82-6.25-2.47c-1.64-1.64-2.47-3.57-2.47-5.79Z"/><path class="cls-1" d="m247.88,87.72h-13.07v-8.83h-.23c-1.22,2.75-3.34,5.18-6.36,7.28-3.02,2.1-6.59,3.15-10.72,3.15-3.59,0-6.67-.63-9.23-1.89-2.56-1.26-4.66-2.92-6.31-4.99-1.65-2.06-2.85-4.43-3.61-7.11-.77-2.68-1.15-5.43-1.15-8.25v-34.4h13.76v30.5c0,1.6.11,3.29.34,5.04.23,1.76.73,3.35,1.49,4.76.76,1.42,1.81,2.58,3.15,3.5,1.34.92,3.11,1.38,5.33,1.38s4.03-.44,5.68-1.32c1.64-.88,2.98-2.01,4.01-3.38,1.03-1.38,1.81-2.96,2.35-4.76.53-1.8.8-3.61.8-5.45v-30.27h13.76v55.03Z"/><path class="cls-1" d="m264.39,32.69h13.07v8.83h.23c1.22-2.75,3.34-5.18,6.36-7.28,3.02-2.1,6.59-3.15,10.72-3.15,3.59,0,6.67.63,9.23,1.89,2.56,1.26,4.66,2.92,6.31,4.99,1.64,2.06,2.85,4.43,3.61,7.11.76,2.68,1.15,5.43,1.15,8.25v34.4h-13.76v-30.5c0-1.6-.11-3.29-.34-5.05-.23-1.76-.73-3.34-1.49-4.76-.77-1.41-1.82-2.58-3.15-3.5-1.34-.92-3.12-1.38-5.33-1.38s-4.13.44-5.73,1.32c-1.6.88-2.92,2.01-3.96,3.38-1.03,1.38-1.82,2.96-2.35,4.76-.54,1.8-.8,3.61-.8,5.45v30.27h-13.76v-55.03Z"/><path class="cls-1" d="m33.49,136.37c-1.22-1.6-2.91-3-5.04-4.18-2.14-1.18-4.47-1.78-6.99-1.78-2.22,0-4.24.46-6.08,1.38-1.83.92-2.75,2.45-2.75,4.59s1.01,3.65,3.04,4.53c2.02.88,4.99,1.78,8.89,2.69,2.06.46,4.15,1.07,6.25,1.83,2.1.77,4.01,1.78,5.73,3.04,1.72,1.26,3.11,2.83,4.18,4.7,1.07,1.87,1.6,4.15,1.6,6.82,0,3.36-.63,6.21-1.89,8.54-1.26,2.33-2.94,4.22-5.05,5.68-2.1,1.45-4.55,2.5-7.34,3.15-2.79.65-5.67.97-8.66.97-4.28,0-8.45-.78-12.5-2.35-4.05-1.57-7.41-3.8-10.09-6.71l9.06-8.49c1.53,1.99,3.52,3.63,5.96,4.93,2.45,1.3,5.16,1.95,8.14,1.95.99,0,2.01-.11,3.04-.34,1.03-.23,1.99-.59,2.87-1.09.88-.49,1.58-1.16,2.12-2.01.53-.84.8-1.87.8-3.1,0-2.29-1.05-3.94-3.15-4.93-2.1-.99-5.26-1.99-9.46-2.98-2.06-.46-4.07-1.05-6.02-1.78-1.95-.73-3.69-1.68-5.22-2.87-1.53-1.18-2.75-2.66-3.67-4.42-.92-1.76-1.38-3.94-1.38-6.54,0-3.06.63-5.69,1.89-7.91,1.26-2.22,2.92-4.03,4.99-5.45,2.06-1.41,4.39-2.47,6.99-3.15,2.6-.69,5.27-1.03,8.03-1.03,3.97,0,7.85.69,11.64,2.06,3.78,1.38,6.78,3.48,9,6.31l-8.94,7.91Z"/><path class="cls-1" d="m46.33,132.71v-11.01h9.63v-26.94h13.53v26.94h13.76v11.01h-13.76v25.57c0,2.45.44,4.47,1.32,6.08.88,1.6,2.85,2.41,5.9,2.41.92,0,1.91-.1,2.98-.29,1.07-.19,2.02-.48,2.87-.86l.46,10.78c-1.22.46-2.68.82-4.36,1.09-1.68.27-3.29.4-4.81.4-3.67,0-6.65-.52-8.94-1.55-2.29-1.03-4.11-2.44-5.45-4.24-1.34-1.8-2.25-3.86-2.75-6.19-.5-2.33-.75-4.83-.75-7.51v-25.68h-9.63Z"/><path class="cls-1" d="m143.44,176.73h-13.07v-8.83h-.23c-1.22,2.75-3.34,5.18-6.36,7.28-3.02,2.1-6.59,3.15-10.72,3.15-3.59,0-6.67-.63-9.23-1.89-2.56-1.26-4.66-2.92-6.31-4.99-1.65-2.06-2.85-4.43-3.61-7.11-.77-2.68-1.15-5.43-1.15-8.26v-34.4h13.76v30.5c0,1.6.11,3.29.34,5.04.23,1.76.73,3.35,1.49,4.76.76,1.42,1.81,2.58,3.15,3.5,1.34.92,3.11,1.38,5.33,1.38s4.03-.44,5.68-1.32c1.64-.88,2.98-2.01,4.01-3.38,1.03-1.38,1.81-2.96,2.35-4.76.53-1.8.8-3.61.8-5.45v-30.27h13.76v55.03Z"/><path class="cls-1" d="m215.9,176.73h-13.07v-8.25h-.23c-1.91,3.21-4.57,5.66-7.97,7.34-3.4,1.68-7.05,2.52-10.95,2.52-4.2,0-7.97-.78-11.29-2.35-3.33-1.57-6.15-3.67-8.49-6.31-2.33-2.64-4.13-5.73-5.39-9.29-1.26-3.55-1.89-7.36-1.89-11.41s.65-7.83,1.95-11.35c1.3-3.51,3.13-6.57,5.51-9.17,2.37-2.6,5.2-4.64,8.48-6.13,3.29-1.49,6.88-2.24,10.78-2.24,2.52,0,4.78.29,6.76.86,1.99.57,3.73,1.28,5.22,2.12,1.49.84,2.77,1.76,3.84,2.75,1.07.99,1.95,1.95,2.64,2.87h.35v-33.94h13.76v81.98Zm-45.29-27.75c0,2.14.32,4.28.97,6.42.65,2.14,1.62,4.05,2.92,5.73,1.3,1.68,2.94,3.06,4.93,4.13,1.99,1.07,4.32,1.6,6.99,1.6,2.52,0,4.78-.52,6.76-1.55,1.99-1.03,3.69-2.39,5.1-4.07,1.41-1.68,2.48-3.57,3.21-5.67.72-2.1,1.09-4.22,1.09-6.36s-.36-4.28-1.09-6.42c-.73-2.14-1.8-4.05-3.21-5.73-1.41-1.68-3.11-3.06-5.1-4.13-1.99-1.07-4.24-1.6-6.76-1.6-2.68,0-5.01.52-6.99,1.55-1.99,1.03-3.63,2.39-4.93,4.07-1.3,1.68-2.28,3.57-2.92,5.67-.65,2.1-.97,4.22-.97,6.36Z"/><path class="cls-1" d="m230.92,103.01c0-2.22.82-4.15,2.47-5.79,1.64-1.64,3.73-2.47,6.25-2.47s4.64.78,6.36,2.35c1.72,1.57,2.58,3.54,2.58,5.9s-.86,4.34-2.58,5.9c-1.72,1.57-3.84,2.35-6.36,2.35s-4.61-.82-6.25-2.47c-1.64-1.64-2.47-3.57-2.47-5.79Zm1.95,18.69h13.76v55.03h-13.76v-55.03Z"/><path class="cls-1" d="m260.15,148.99c0-4.36.78-8.31,2.35-11.87,1.57-3.55,3.69-6.59,6.36-9.12,2.67-2.52,5.85-4.47,9.52-5.85,3.67-1.38,7.57-2.06,11.69-2.06s8.03.69,11.69,2.06c3.67,1.38,6.84,3.33,9.52,5.85,2.67,2.52,4.8,5.56,6.36,9.12,1.57,3.55,2.35,7.51,2.35,11.87s-.78,8.33-2.35,11.92c-1.57,3.59-3.69,6.67-6.36,9.23-2.68,2.56-5.85,4.57-9.52,6.02-3.67,1.45-7.57,2.18-11.69,2.18s-8.03-.73-11.69-2.18c-3.67-1.45-6.84-3.46-9.52-6.02-2.68-2.56-4.8-5.64-6.36-9.23-1.57-3.59-2.35-7.57-2.35-11.92Zm13.99,0c0,2.14.32,4.28.97,6.42.65,2.14,1.62,4.05,2.92,5.73,1.3,1.68,2.94,3.06,4.93,4.13,1.99,1.07,4.36,1.6,7.11,1.6s5.12-.53,7.11-1.6c1.99-1.07,3.63-2.44,4.93-4.13,1.3-1.68,2.27-3.59,2.92-5.73.65-2.14.97-4.28.97-6.42s-.32-4.26-.97-6.36c-.65-2.1-1.63-3.99-2.92-5.67-1.3-1.68-2.94-3.04-4.93-4.07s-4.36-1.55-7.11-1.55-5.12.52-7.11,1.55c-1.99,1.03-3.63,2.39-4.93,4.07-1.3,1.68-2.27,3.57-2.92,5.67-.65,2.1-.97,4.22-.97,6.36Z"/></svg>