<?xml version="1.0" encoding="UTF-8"?><svg id="Layer_1" xmlns="http://www.w3.org/2000/svg" viewBox="0 0 72 72"><defs><style>.cls-1{fill:#7b8b54;}.cls-1,.cls-2,.cls-3{stroke-width:0px;}.cls-2{fill:#a9c371;}.cls-3{fill:#edeef2;}</style></defs><rect class="cls-3" x="34.61" y="30.12" width="5.79" height="37.02"/><rect class="cls-3" x="37.51" y="30.12" width="2.89" height="37.02"/><rect class="cls-1" x="34.61" y="21.82" width="5.79" height="9.33"/><rect class="cls-2" x="34.61" y="21.82" width="2.89" height="9.33"/><path class="cls-3" d="m27.16,15.52s-1.28,5.28-.75,6.68c.53,1.4,4.83,4.05,4.83,4.05,0,0-5.19-1.32-6.58-.79-1.4.53-4.14,4.86-4.14,4.86,0,0,1.12-5.21.59-6.6-.53-1.4-4.66-4.12-4.66-4.12,0,0,5.08,1.27,6.47.74,1.4-.53,4.25-4.82,4.25-4.82Z"/><path class="cls-3" d="m45.09,4.86s1.11,5.95,2.28,7.12c1.18,1.18,6.75,1.91,6.75,1.91,0,0-5.87,1.03-7.04,2.2-1.18,1.18-1.99,6.83-1.99,6.83,0,0-1.24-5.8-2.42-6.98-1.18-1.18-6.62-2.06-6.62-2.06,0,0,5.73-1.03,6.91-2.2,1.18-1.18,2.12-6.83,2.12-6.83Z"/><path class="cls-3" d="m50.33,21.25s.64,3.45,1.32,4.13c.68.68,3.91,1.11,3.91,1.11,0,0-3.4.6-4.08,1.28-.68.68-1.15,3.96-1.15,3.96,0,0-.72-3.36-1.4-4.04-.68-.68-3.83-1.19-3.83-1.19,0,0,3.32-.6,4-1.28.68-.68,1.23-3.96,1.23-3.96Z"/></svg>