<?xml version="1.0" encoding="UTF-8"?><svg id="Layer_1" xmlns="http://www.w3.org/2000/svg" viewBox="0 0 72 72"><defs><style>.cls-1{fill:#7b8b54;}.cls-1,.cls-2{stroke-width:0px;}.cls-2{fill:#edeef2;}</style></defs><polygon class="cls-1" points="35.95 15.89 35.95 16.69 20.83 21.94 7.01 17.2 35.95 7.11 35.95 15.89"/><polygon class="cls-1" points="20.93 22.24 20.83 49.96 20.93 50.06 20.83 50.17 7.01 55 7.01 17.2 20.83 21.94 20.93 22.04 20.93 22.24"/><path class="cls-2" d="m51.07,23.25c-.5,0-1.01-.3-1.21-.81-.2-.71.1-1.41.81-1.61l10.49-3.63-25.21-8.77-25.1,8.77,10.49,3.63c.71.2,1.01.91.81,1.61-.2.71-.91,1.01-1.61.81l-13.91-4.84c-.5-.2-.81-.6-.81-1.21,0-.5.3-1.01.81-1.21l29.04-10.08c.3-.1.6-.1.81,0l29.04,10.08c.5.2.81.61.81,1.21,0,.5-.3,1.01-.81,1.21l-13.91,4.84h-.5Z"/><path class="cls-2" d="m35.95,28.49c-.1,0-.3,0-.4-.1l-15.12-5.24c-.5-.2-.81-.61-.81-1.21,0-.5.3-1.01.81-1.21l15.12-5.24c.3-.1.6-.1.81,0l15.12,5.24c.5.2.81.6.81,1.21,0,.5-.3,1.01-.81,1.21h-.1l-15.02,5.24c-.1.1-.3.1-.4.1Zm-11.29-6.55l11.29,3.93,11.29-3.93-11.29-3.93-11.29,3.93Z"/><path class="cls-2" d="m35.95,56.62c-.1,0-.3,0-.4-.1l-15.12-5.24c-.71-.2-1.01-.91-.81-1.61.2-.71.91-1.01,1.61-.81l14.72,5.24,14.72-5.14c.71-.2,1.41.1,1.61.81.2.71-.1,1.41-.81,1.61l-15.12,5.24h-.4Z"/><path class="cls-2" d="m35.95,66.3c-.1,0-.3,0-.4-.1l-29.04-10.08c-.5-.2-.81-.61-.81-1.21,0-.5.3-1.01.81-1.21l29.04-10.08c.3-.1.6-.1.81,0l29.04,10.08c.5.2.81.61.81,1.21,0,.5-.3,1.01-.81,1.21l-29.04,10.08c-.1.1-.3.1-.4.1Zm-25.1-11.29l25.1,8.67,25.1-8.77-25.1-8.67-25.1,8.77Z"/><path class="cls-2" d="m64.99,56.21c-.71,0-1.31-.6-1.31-1.31V17.2c0-.71.6-1.31,1.31-1.31s1.31.6,1.31,1.31v37.81c-.1.61-.71,1.21-1.31,1.21Z"/><path class="cls-2" d="m7.01,56.21c-.71,0-1.31-.6-1.31-1.31V17.2c0-.71.6-1.31,1.31-1.31s1.31.6,1.31,1.31v37.81c-.1.61-.71,1.21-1.31,1.21Z"/><path class="cls-2" d="m35.95,56.21c-.71,0-1.31-.6-1.31-1.31v-27.62c0-.71.6-1.31,1.31-1.31s1.31.6,1.31,1.31v27.73c0,.61-.6,1.21-1.31,1.21Z"/><path class="cls-2" d="m35.95,17.2c-.71,0-1.31-.6-1.31-1.31V7.01c0-.71.6-1.31,1.31-1.31s1.31.61,1.31,1.31v8.87c0,.71-.6,1.31-1.31,1.31Z"/><path class="cls-2" d="m35.95,66.3c-.71,0-1.31-.6-1.31-1.31v-8.77c0-.71.6-1.31,1.31-1.31s1.31.6,1.31,1.31v8.87c0,.61-.6,1.21-1.31,1.21Z"/><path class="cls-2" d="m51.07,51.38c-.71,0-1.31-.6-1.31-1.31v-27.83c0-.71.61-1.31,1.31-1.31s1.31.6,1.31,1.31v27.93c0,.71-.6,1.21-1.31,1.21Z"/><path class="cls-2" d="m20.83,51.17h0c-.71,0-1.31-.6-1.31-1.31l.1-27.73c0-.71.6-1.21,1.21-1.21h0c.71,0,1.21.6,1.21,1.31l-.1,27.73c.1.61-.4,1.21-1.11,1.21Z"/></svg>