<?xml version="1.0" encoding="UTF-8"?><svg id="Layer_1" xmlns="http://www.w3.org/2000/svg" viewBox="0 0 72 72"><defs><style>.cls-1{fill:#edeef2;stroke-width:0px;}</style></defs><path class="cls-1" d="m64.7,66.05H7.2c-.7,0-1.3-.6-1.3-1.3V17.35c0-.7.6-1.3,1.3-1.3s1.3.6,1.3,1.3v46.3h55V17.35c0-.7.6-1.3,1.3-1.3s1.3.6,1.3,1.3v47.5c-.2.6-.8,1.2-1.4,1.2Z"/><path class="cls-1" d="m64.7,18.55H7.2c-.7,0-1.3-.6-1.3-1.3V7.25c0-.7.6-1.3,1.3-1.3h57.5c.7,0,1.3.6,1.3,1.3v10c-.1.7-.7,1.3-1.3,1.3Zm-56.3-2.5h55v-7.5H8.4v7.5Z"/><path class="cls-1" d="m20.9,41.05h-8.8c-.7,0-1.3-.6-1.3-1.3s.6-1.3,1.3-1.3h8.8c.7,0,1.3.6,1.3,1.3s-.6,1.3-1.3,1.3Z"/><path class="cls-1" d="m38.4,41.05h-12.5c-.7,0-1.3-.6-1.3-1.3s.6-1.3,1.3-1.3h12.5c.7,0,1.3.6,1.3,1.3s-.6,1.3-1.3,1.3Z"/><path class="cls-1" d="m39.7,46.05h-18.8c-.7,0-1.3-.6-1.3-1.3s.6-1.3,1.3-1.3h18.8c.7,0,1.3.6,1.3,1.3s-.7,1.3-1.3,1.3Z"/><path class="cls-1" d="m15.9,46.05h-3.8c-.7,0-1.3-.6-1.3-1.3s.6-1.3,1.3-1.3h3.8c.7,0,1.3.6,1.3,1.3s-.6,1.3-1.3,1.3Z"/><path class="cls-1" d="m40.9,51.05h-10c-.7,0-1.3-.6-1.3-1.3s.6-1.3,1.3-1.3h10c.7,0,1.3.6,1.3,1.3s-.6,1.3-1.3,1.3Z"/><path class="cls-1" d="m25.9,51.05h-13.7c-.7,0-1.3-.6-1.3-1.3s.6-1.3,1.3-1.3h13.7c.7,0,1.3.6,1.3,1.3s-.6,1.3-1.3,1.3Z"/><path class="cls-1" d="m29.7,36.05H12.2c-.7,0-1.3-.6-1.3-1.3s.6-1.3,1.3-1.3h17.5c.7,0,1.3.6,1.3,1.3-.1.7-.7,1.3-1.3,1.3Z"/><path class="cls-1" d="m37.2,36.05h-2.5c-.7,0-1.3-.6-1.3-1.3s.6-1.3,1.3-1.3h2.5c.7,0,1.3.6,1.3,1.3-.1.7-.7,1.3-1.3,1.3Z"/><path class="cls-1" d="m44.7,61.05h-15c-.7,0-1.3-.6-1.3-1.3s.6-1.3,1.3-1.3h15c.7,0,1.3.6,1.3,1.3-.1.7-.7,1.3-1.3,1.3Z"/><path class="cls-1" d="m24.7,61.05h-12.5c-.7,0-1.3-.6-1.3-1.3s.6-1.3,1.3-1.3h12.5c.7,0,1.3.6,1.3,1.3-.1.7-.7,1.3-1.3,1.3Z"/><path class="cls-1" d="m43.4,56.05h-5c-.7,0-1.3-.6-1.3-1.3s.6-1.3,1.3-1.3h5c.7,0,1.3.6,1.3,1.3s-.6,1.3-1.3,1.3Z"/><path class="cls-1" d="m33.4,56.05H12.2c-.7,0-1.3-.6-1.3-1.3s.6-1.3,1.3-1.3h21.3c.7,0,1.3.6,1.3,1.3-.1.7-.7,1.3-1.4,1.3Z"/><path class="cls-1" d="m59.7,31.05H12.2c-.7,0-1.3-.6-1.3-1.3v-7.5c0-.7.6-1.3,1.3-1.3h47.5c.7,0,1.3.6,1.3,1.3v7.5c-.1.7-.7,1.3-1.3,1.3Zm-46.3-2.5h45v-5H13.4v5Z"/><path class="cls-1" d="m47.2,46.05c-.4,0-.8-.2-1-.6l-2.5-3.8c-.3-.4-.3-1,0-1.4l2.5-3.8c.4-.6,1.2-.7,1.7-.3.6.4.7,1.2.3,1.7l-2,3.1,2,3.1c.4.6.2,1.4-.3,1.7-.3.2-.5.3-.7.3Z"/><path class="cls-1" d="m57.1,46.05c-.2,0-.5-.1-.7-.2-.6-.4-.7-1.2-.3-1.7l2-3.1-2-3.1c-.4-.6-.2-1.4.3-1.7.6-.4,1.4-.2,1.7.3l2.5,3.8c.3.4.3,1,0,1.4l-2.5,3.8c-.2.3-.5.5-1,.5Z"/><path class="cls-1" d="m49.6,48.55c-.2,0-.3,0-.5-.1-.6-.3-1-1-.7-1.6l5-12.5c.3-.6,1-1,1.6-.7.6.3,1,1,.7,1.6l-5,12.5c-.1.5-.6.8-1.1.8Z"/></svg>