<?xml version="1.0" encoding="UTF-8"?><svg id="Layer_1" xmlns="http://www.w3.org/2000/svg" viewBox="0 0 72 26.82"><defs><style>.cls-1{fill:#edeef2;stroke-width:0px;}</style></defs><path class="cls-1" d="m45.09,11.64c.35,0,.65.06.9.18.25.12.45.28.61.49.16.2.28.43.35.69.07.26.11.53.11.8v3.35h-1.34v-2.97c0-.16-.01-.32-.03-.49-.02-.17-.07-.33-.15-.46-.07-.14-.18-.25-.31-.34-.13-.09-.3-.13-.52-.13s-.39.04-.54.13c-.15.09-.27.2-.37.35-.1.14-.17.3-.21.47-.04.17-.07.35-.07.52v2.92h-1.34v-3.24c0-.33-.08-.61-.24-.83-.16-.22-.41-.33-.75-.33-.2,0-.38.04-.52.13-.15.09-.27.2-.36.33-.09.13-.16.29-.21.46-.05.17-.07.35-.07.53v2.95h-1.34v-5.36h1.27v.86h.02c.06-.13.14-.26.24-.38.1-.12.22-.23.36-.32.14-.1.3-.17.47-.23.18-.06.38-.08.59-.08.42,0,.76.09,1.04.28.28.19.49.43.64.74.18-.33.42-.58.71-.75.3-.17.65-.26,1.05-.26Z"/><path class="cls-1" d="m53.52,17.16h-1.27v-.86h-.02c-.12.27-.33.5-.62.71s-.64.31-1.04.31c-.35,0-.65-.06-.9-.18-.25-.12-.45-.28-.61-.49-.16-.2-.28-.43-.35-.69-.07-.26-.11-.53-.11-.8v-3.35h1.34v2.97c0,.16.01.32.03.49.02.17.07.33.15.46.07.14.18.25.31.34s.3.13.52.13.39-.04.55-.13c.16-.09.29-.2.39-.33.1-.13.18-.29.23-.46.05-.17.08-.35.08-.53v-2.95h1.34v5.36Z"/><path class="cls-1" d="m56.49,11.8v5.68c0,.32-.03.62-.08.91-.05.29-.15.54-.3.75-.15.21-.34.38-.59.51-.25.13-.57.19-.98.19-.11,0-.22,0-.33-.02-.11-.01-.2-.03-.27-.04l.11-1.14c.06.01.12.03.19.03.07,0,.13.01.18.01.16,0,.28-.03.38-.09.1-.06.17-.14.22-.25.05-.1.09-.23.1-.36.01-.14.02-.28.02-.44v-5.74h1.34Zm-1.53-1.82c0-.22.08-.4.24-.56.16-.16.36-.24.61-.24s.45.08.62.23c.17.15.25.34.25.57s-.08.42-.25.57c-.17.15-.37.23-.62.23s-.45-.08-.61-.24c-.16-.16-.24-.35-.24-.56Z"/><path class="cls-1" d="m63.01,17.16h-1.27v-.86h-.02c-.12.27-.33.5-.62.71s-.64.31-1.04.31c-.35,0-.65-.06-.9-.18-.25-.12-.45-.28-.61-.49-.16-.2-.28-.43-.35-.69-.07-.26-.11-.53-.11-.8v-3.35h1.34v2.97c0,.16.01.32.03.49.02.17.07.33.15.46.07.14.18.25.31.34s.3.13.52.13.39-.04.55-.13c.16-.09.29-.2.39-.33.1-.13.18-.29.23-.46.05-.17.08-.35.08-.53v-2.95h1.34v5.36Z"/><path class="cls-1" d="m64.62,11.8h1.27v.86h.02c.12-.27.33-.5.62-.71.29-.2.64-.31,1.04-.31.35,0,.65.06.9.18.25.12.45.28.61.49s.28.43.35.69c.07.26.11.53.11.8v3.35h-1.34v-2.97c0-.16-.01-.32-.03-.49-.02-.17-.07-.33-.15-.46-.07-.14-.18-.25-.31-.34-.13-.09-.3-.13-.52-.13s-.4.04-.56.13c-.16.09-.28.2-.39.33-.1.13-.18.29-.23.46-.05.17-.08.35-.08.53v2.95h-1.34v-5.36Z"/><path class="cls-1" d="m42.13,21.89c-.12-.16-.28-.29-.49-.41-.21-.12-.44-.17-.68-.17-.22,0-.41.04-.59.13-.18.09-.27.24-.27.45s.1.36.3.44c.2.09.49.17.87.26.2.04.4.1.61.18.2.07.39.17.56.3.17.12.3.28.41.46.1.18.16.4.16.66,0,.33-.06.6-.18.83-.12.23-.29.41-.49.55-.2.14-.44.24-.71.31-.27.06-.55.09-.84.09-.42,0-.82-.08-1.22-.23s-.72-.37-.98-.65l.88-.83c.15.19.34.35.58.48.24.13.5.19.79.19.1,0,.2-.01.3-.03s.19-.06.28-.11c.09-.05.15-.11.21-.2.05-.08.08-.18.08-.3,0-.22-.1-.38-.31-.48-.2-.1-.51-.19-.92-.29-.2-.04-.4-.1-.59-.17-.19-.07-.36-.16-.51-.28-.15-.12-.27-.26-.36-.43-.09-.17-.13-.38-.13-.64,0-.3.06-.55.18-.77s.28-.39.49-.53c.2-.14.43-.24.68-.31.25-.07.51-.1.78-.1.39,0,.76.07,1.13.2.37.13.66.34.88.61l-.87.77Z"/><path class="cls-1" d="m43.38,21.54v-1.07h.94v-2.62h1.32v2.62h1.34v1.07h-1.34v2.49c0,.24.04.44.13.59.09.16.28.23.57.23.09,0,.19,0,.29-.03.1-.02.2-.05.28-.08l.04,1.05c-.12.04-.26.08-.42.11-.16.03-.32.04-.47.04-.36,0-.65-.05-.87-.15-.22-.1-.4-.24-.53-.41-.13-.17-.22-.38-.27-.6-.05-.23-.07-.47-.07-.73v-2.5h-.94Z"/><path class="cls-1" d="m52.84,25.82h-1.27v-.86h-.02c-.12.27-.33.5-.62.71s-.64.31-1.04.31c-.35,0-.65-.06-.9-.18-.25-.12-.45-.28-.61-.49-.16-.2-.28-.43-.35-.69-.07-.26-.11-.53-.11-.8v-3.35h1.34v2.97c0,.16.01.32.03.49.02.17.07.33.15.46.07.14.18.25.31.34.13.09.3.13.52.13s.39-.04.55-.13c.16-.09.29-.2.39-.33.1-.13.18-.29.23-.46.05-.17.08-.35.08-.53v-2.95h1.34v5.36Z"/><path class="cls-1" d="m59.89,25.82h-1.27v-.8h-.02c-.19.31-.44.55-.78.71-.33.16-.69.25-1.07.25-.41,0-.78-.08-1.1-.23s-.6-.36-.83-.61c-.23-.26-.4-.56-.52-.9s-.18-.72-.18-1.11.06-.76.19-1.11c.13-.34.31-.64.54-.89.23-.25.51-.45.83-.6.32-.15.67-.22,1.05-.22.25,0,.47.03.66.08.19.06.36.12.51.21.15.08.27.17.37.27.1.1.19.19.26.28h.03v-3.3h1.34v7.98Zm-4.41-2.7c0,.21.03.42.09.63.06.21.16.39.28.56.13.16.29.3.48.4.19.1.42.16.68.16.25,0,.47-.05.66-.15s.36-.23.5-.4.24-.35.31-.55c.07-.2.11-.41.11-.62s-.04-.42-.11-.63c-.07-.21-.17-.39-.31-.56-.14-.16-.3-.3-.5-.4-.19-.1-.41-.16-.66-.16-.26,0-.49.05-.68.15s-.35.23-.48.4c-.13.16-.22.35-.28.55-.06.2-.09.41-.09.62Z"/><path class="cls-1" d="m61.36,18.64c0-.22.08-.4.24-.56.16-.16.36-.24.61-.24s.45.08.62.23c.17.15.25.34.25.57s-.08.42-.25.57c-.17.15-.37.23-.62.23s-.45-.08-.61-.24c-.16-.16-.24-.35-.24-.56Zm.19,1.82h1.34v5.36h-1.34v-5.36Z"/><path class="cls-1" d="m64.2,23.12c0-.42.08-.81.23-1.16.15-.35.36-.64.62-.89.26-.25.57-.44.93-.57s.74-.2,1.14-.2.78.07,1.14.2.67.32.93.57c.26.25.47.54.62.89.15.35.23.73.23,1.16s-.08.81-.23,1.16c-.15.35-.36.65-.62.9-.26.25-.57.44-.93.59s-.74.21-1.14.21-.78-.07-1.14-.21-.67-.34-.93-.59c-.26-.25-.47-.55-.62-.9-.15-.35-.23-.74-.23-1.16Zm1.36,0c0,.21.03.42.09.63.06.21.16.39.28.56.13.16.29.3.48.4.19.1.42.16.69.16s.5-.05.69-.16c.19-.1.35-.24.48-.4.13-.16.22-.35.28-.56.06-.21.09-.42.09-.63s-.03-.41-.09-.62c-.06-.2-.16-.39-.28-.55-.13-.16-.29-.3-.48-.4s-.42-.15-.69-.15-.5.05-.69.15c-.19.1-.35.23-.48.4-.13.16-.22.35-.28.55-.06.2-.09.41-.09.62Z"/><path class="cls-1" d="m34.3,11.68c-.69,2.27-2.01,4.4-2.62,6.73-.7,2.72-.13,5.66.06,8.41,0,0-6.52,0-6.52,0,.02-1.98.05-3.96.27-5.93s1.12-4,.78-5.96c-.05-.3-.15-.61-.4-.77-.23-.14-.53-.12-.76,0s-.42.33-.57.55c-1.05,1.54-.87,3.55-.87,5.32,0,.56.07,6.78.07,6.78,0,0-3.43,0-5.15,0h-9.84c-.99-4.4-.05-9.02,1.4-13.21.34-.98.64-3.24-.94-3.33-1.47-.08-2.05,2-2.22,3.15-.21,1.45-.2,2.85-.23,4.31-.06,2.81-.03,8.39-.02,9.08H.12v-14.07c0-1.26-.04-2.55.22-3.78C1.12,5.22,3.9,2.08,7.48.74c3.25-1.22,8.48-1.15,10.8,1.9,2.29,3.01.05,7.02-1.32,9.9-1.21,2.56-2.14,5.5-.64,8.16.15.27.33.53.59.69s.63.18.86-.02c.67-.58.49-2.78.55-3.6.1-1.46.15-2.92.43-4.36.5-2.6,1.81-4.78,4.21-5.98,2.8-1.4,6.13-1.61,8.97-.17,1.23.62,2.41,1.67,2.54,3.05.04.45-.03.91-.17,1.37Z"/><path class="cls-1" d="m70.72,9.06c-.64,0-1.17.52-1.17,1.17s.52,1.17,1.17,1.17,1.17-.52,1.17-1.17-.52-1.17-1.17-1.17Zm0,2.04c-.48,0-.87-.39-.87-.87s.39-.87.87-.87.87.39.87.87-.39.87-.87.87Z"/><path class="cls-1" d="m70.96,10.42c-.05.05-.14.09-.22.09-.27,0-.3-.22-.3-.29,0-.09.03-.17.08-.22.05-.05.12-.08.21-.08.08,0,.16.03.21.08l.05.05.25-.24-.06-.05c-.12-.12-.28-.19-.45-.19-.19,0-.35.06-.47.18-.12.12-.18.29-.18.47,0,.17.06.32.16.44.12.13.29.2.49.2.18,0,.34-.06.47-.18l.05-.05-.25-.25-.05.05Z"/></svg>