<?xml version="1.0" encoding="UTF-8"?><svg id="Layer_1" xmlns="http://www.w3.org/2000/svg" viewBox="0 0 34.48 26.82"><defs><style>.cls-1{fill:#edeef2;stroke-width:0px;}</style></defs><path class="cls-1" d="m34.24,11.68c-.69,2.27-2.01,4.4-2.62,6.73-.7,2.72-.13,5.66.06,8.41,0,0-6.52,0-6.52,0,.02-1.98.05-3.96.27-5.93s1.12-4,.78-5.96c-.05-.3-.15-.61-.4-.77-.23-.14-.53-.12-.76,0s-.42.33-.57.55c-1.05,1.54-.87,3.55-.87,5.32,0,.56.07,6.78.07,6.78,0,0-3.43,0-5.15,0h-9.84c-.99-4.4-.05-9.02,1.4-13.21.34-.98.64-3.24-.94-3.33-1.47-.08-2.05,2-2.22,3.15-.21,1.45-.2,2.85-.23,4.31-.06,2.81-.03,8.39-.02,9.08H.06v-14.07c0-1.26-.04-2.55.22-3.78C1.06,5.22,3.84,2.08,7.42.74c3.25-1.22,8.48-1.15,10.8,1.9,2.29,3.01.05,7.02-1.32,9.9-1.21,2.56-2.14,5.5-.64,8.16.15.27.33.53.59.69s.63.18.86-.02c.67-.58.49-2.78.55-3.6.1-1.46.15-2.92.43-4.36.5-2.6,1.81-4.78,4.21-5.98,2.8-1.4,6.13-1.61,8.97-.17,1.23.62,2.41,1.67,2.54,3.05.04.45-.03.91-.17,1.37Z"/></svg>