<?xml version="1.0" encoding="UTF-8"?><svg id="Layer_2" xmlns="http://www.w3.org/2000/svg" viewBox="0 0 320 320"><defs><style>.cls-1{fill:#edeef2;stroke-width:0px;}</style></defs><path class="cls-1" d="m245.87,151.25c-3.48,11.44-10.16,22.2-13.22,33.99-3.56,13.72-.66,28.58.32,42.49,0,0-32.95,0-32.95,0,.12-9.98.23-20,1.38-29.93s5.65-20.21,3.95-30.09c-.26-1.49-.75-3.1-2.03-3.91-1.14-.72-2.67-.6-3.86.03s-2.1,1.69-2.86,2.8c-5.32,7.79-4.41,17.91-4.38,26.87,0,2.82.36,34.23.36,34.23,0,0-17.33,0-26.01,0h-49.68c-5-22.2-.24-45.56,7.08-66.71,1.71-4.94,3.23-16.36-4.73-16.8-7.41-.41-10.35,10.08-11.2,15.91-1.07,7.32-1.01,14.42-1.18,21.76-.32,14.19-.14,42.37-.11,45.83h-33.51v-71.05c0-6.37-.2-12.87,1.1-19.08,3.96-18.95,18-34.81,36.08-41.58,16.43-6.16,42.83-5.8,54.57,9.61,11.59,15.21.23,35.44-6.66,50.01-6.13,12.95-10.79,27.76-3.23,41.19.76,1.35,1.66,2.68,2.98,3.48,1.32.8,3.16.91,4.33-.1,3.38-2.93,2.49-14.02,2.76-18.19.48-7.37.77-14.77,2.16-22.03,2.52-13.14,9.13-24.15,21.25-30.19,14.16-7.06,30.97-8.11,45.33-.85,6.23,3.15,12.19,8.45,12.82,15.4.21,2.3-.16,4.61-.86,6.91Z"/></svg>