<?xml version="1.0" encoding="UTF-8"?><svg id="Layer_1" xmlns="http://www.w3.org/2000/svg" viewBox="0 0 72 72"><defs><style>.cls-1{fill:#fff;fill-rule:evenodd;stroke-width:0px;}</style></defs><path class="cls-1" d="m68.23,34.37c-.43-16.99-14.42-30.63-31.65-30.63S5.69,17.07,4.95,33.79c-.01.46-.03.92-.03,1.38,0,5.94,1.66,11.49,4.54,16.23l-5.71,16.86,17.54-5.57c4.54,2.49,9.75,3.91,15.3,3.91,17.49,0,31.66-14.07,31.66-31.43,0-.27,0-.53-.01-.8Zm-31.65,27.22c-5.41,0-10.44-1.6-14.65-4.37l-10.23,3.26,3.32-9.81c-3.19-4.36-5.07-9.71-5.07-15.49,0-.86.04-1.72.13-2.56,1.3-13.37,12.69-23.85,26.49-23.85s25.47,10.75,26.53,24.36c.06.68.09,1.36.09,2.06,0,14.57-11.95,26.42-26.62,26.42Z"/><path class="cls-1" d="m51.1,41.51c-.79-.38-4.6-2.25-5.31-2.5-.71-.27-1.23-.39-1.75.39-.52.77-2.02,2.5-2.46,3.01-.46.52-.9.58-1.69.19-.77-.39-3.28-1.19-6.24-3.82-2.3-2.03-3.87-4.55-4.31-5.32-.44-.77-.04-1.19.34-1.57.36-.36.77-.9,1.17-1.35.1-.13.19-.25.28-.37.18-.28.31-.55.49-.92.27-.52.13-.96-.06-1.35-.19-.39-1.75-4.18-2.4-5.72-.64-1.54-1.29-1.27-1.75-1.27s-.96-.07-1.48-.07-1.36.19-2.08.96c-.71.77-2.71,2.64-2.71,6.43,0,.89.16,1.78.4,2.62.79,2.71,2.48,4.95,2.77,5.34.38.5,5.37,8.54,13.25,11.64,7.9,3.07,7.9,2.05,9.32,1.91,1.42-.12,4.6-1.85,5.23-3.66.65-1.79.65-3.34.46-3.66-.19-.31-.71-.5-1.48-.89Z"/></svg>