<?xml version="1.0" encoding="UTF-8"?><svg id="Layer_1" xmlns="http://www.w3.org/2000/svg" viewBox="0 0 72 72"><defs><style>.cls-1{fill:#fff;stroke-width:0px;}</style></defs><path class="cls-1" d="m36,10.84c8.19,0,9.16.03,12.4.18,2.99.14,4.62.64,5.7,1.06,1.43.56,2.45,1.22,3.53,2.3,1.07,1.07,1.74,2.1,2.3,3.53.42,1.08.92,2.71,1.06,5.7.15,3.24.18,4.21.18,12.4s-.03,9.16-.18,12.4c-.14,2.99-.64,4.62-1.06,5.7-.56,1.43-1.22,2.45-2.3,3.53-1.07,1.07-2.1,1.74-3.53,2.3-1.08.42-2.71.92-5.7,1.06-3.24.15-4.21.18-12.4.18s-9.16-.03-12.4-.18c-2.99-.14-4.62-.64-5.7-1.06-1.43-.56-2.45-1.22-3.53-2.3-1.07-1.07-1.74-2.1-2.3-3.53-.42-1.08-.92-2.71-1.06-5.7-.15-3.24-.18-4.21-.18-12.4s.03-9.16.18-12.4c.14-2.99.64-4.62,1.06-5.7.56-1.43,1.22-2.45,2.3-3.53,1.07-1.07,2.1-1.74,3.53-2.3,1.08-.42,2.71-.92,5.7-1.06,3.24-.15,4.21-.18,12.4-.18m0-5.53c-8.33,0-9.38.04-12.65.18-3.27.15-5.5.67-7.45,1.43-2.02.78-3.73,1.83-5.44,3.54-1.71,1.71-2.76,3.42-3.54,5.44-.76,1.95-1.28,4.18-1.43,7.45-.15,3.27-.18,4.32-.18,12.65s.03,9.38.18,12.65c.15,3.27.67,5.5,1.43,7.45.78,2.02,1.83,3.73,3.54,5.44,1.71,1.71,3.42,2.76,5.44,3.54,1.95.76,4.18,1.28,7.45,1.43,3.27.15,4.32.18,12.65.18s9.38-.04,12.65-.18c3.27-.15,5.5-.67,7.45-1.43,2.02-.78,3.73-1.83,5.44-3.54,1.71-1.71,2.76-3.42,3.54-5.44.76-1.95,1.28-4.18,1.43-7.45.15-3.27.18-4.32.18-12.65s-.04-9.38-.18-12.65c-.15-3.27-.67-5.5-1.43-7.45-.78-2.02-1.83-3.73-3.54-5.44-1.71-1.71-3.42-2.76-5.44-3.54-1.95-.76-4.18-1.28-7.45-1.43-3.27-.15-4.32-.18-12.65-.18"/><path class="cls-1" d="m36,20.24c-8.7,0-15.76,7.05-15.76,15.76s7.06,15.76,15.76,15.76,15.76-7.06,15.76-15.76-7.05-15.76-15.76-15.76m0,25.99c-5.65,0-10.23-4.58-10.23-10.23s4.58-10.23,10.23-10.23,10.23,4.58,10.23,10.23-4.58,10.23-10.23,10.23"/><path class="cls-1" d="m56.06,19.62c0,2.03-1.65,3.68-3.68,3.68s-3.68-1.65-3.68-3.68,1.65-3.68,3.68-3.68,3.68,1.65,3.68,3.68"/></svg>